<svg xmlns="http://www.w3.org/2000/svg" xmlns:xlink="http://www.w3.org/1999/xlink" viewBox="0 0 51 52.5" version="1.1" x="0px" y="0px"><title>icon-news@1x</title><desc>Created with Sketch.</desc><g stroke="none" stroke-width="1" fill="none" fill-rule="evenodd"><g transform="translate(-482.000000, -3092.000000)" fill="#000000"><g><g transform="translate(330.000000, 2640.000000)"><g transform="translate(0.000000, 426.000000)"><g transform="translate(130.000000, 0.000000)"><g transform="translate(22.000000, 26.000000)"><path d="M44.0528228,0.92913116 C44.0662277,0.999182178 44.0732451,1.07149238 44.0732451,1.14543164 L44.0732451,4.21450116 L49.4608974,4.21450116 C49.5387867,4.2156466 49.8274355,4.22710091 50.0794305,4.44816922 C50.388697,4.71963652 50.3990059,5.09304723 50.4001513,5.15490054 L50.4001513,33.5203696 C50.3978605,34.0747585 50.3371526,37.1742965 47.8160576,39.6140659 C45.4243963,41.9301287 42.5207271,42 41.9193755,42 L8.47964428,42 L8.47735342,42 C7.92869167,42 4.76615492,41.9461647 2.31951294,39.3689435 C0.0630126171,36.9910275 -0.00113155454,34.1343209 1.38770953e-05,33.5203696 L1.38770953e-05,0.939712115 C1.38770953e-05,0.862968195 0.0114681935,0.569737696 0.238263658,0.315451873 C0.509730955,0.0107670574 0.877414511,0.000458172655 0.939267819,0.000458172655 L42.8951262,0.000458172655 C42.905985,0.000153403086 42.9168815,0 42.9278135,0 C42.9387456,0 42.949642,0.000153403088 42.9605008,0.000458172655 L43.1140607,0.000458172655 C43.1804957,0.00389446757 43.544743,0.0256576687 43.812774,0.331487916 C44.0197768,0.567118763 44.0479027,0.834502906 44.0528228,0.92913116 Z M41.7823819,6.50536444 L41.7624514,6.50536444 L41.7624514,4.21450116 L41.7624514,2.29132145 L2.29086918,2.29132145 L2.29087715,33.5203696 C2.28973172,34.1056852 2.41000204,36.1376809 3.98038882,37.7916842 C5.67104591,39.5716849 7.84965688,39.7091367 8.47735342,39.7091367 L41.9193755,39.7091367 C42.5046911,39.7091367 44.55845,39.579703 46.2227621,37.9680806 C47.9672545,36.2808598 48.1069972,34.1331755 48.1092881,33.5146424 L48.1092881,6.50536444 L44.0732451,6.50536444 L44.0732451,33.9253942 C44.0732451,34.5576725 43.5600918,35.0708259 42.9278135,35.0708259 C42.2955352,35.0708259 41.7823819,34.5576725 41.7823819,33.9253942 L41.7823819,6.50536444 Z M20.3559377,6.90764003 C21.0053974,6.90764003 21.532296,7.43339315 21.532296,8.08285289 L21.532296,19.0973235 C21.532296,19.7467832 21.0053974,20.2736818 20.3559377,20.2736818 L8.07347423,20.2736818 C7.42401449,20.2736818 6.89711594,19.7467832 6.89711594,19.0973235 L6.89711594,8.08285289 C6.89711594,7.43339315 7.42401449,6.90764003 8.07347423,6.90764003 L20.3559377,6.90764003 Z M9.18912464,17.9828185 L19.2414327,17.9828185 L19.2414327,9.1985033 L9.18912464,9.1985033 L9.18912464,17.9828185 Z M36.0457166,9.1985033 L24.9613746,9.1985033 C24.3290964,9.1985033 23.815943,8.68534993 23.815943,8.05307167 C23.815943,7.4207934 24.3290964,6.90764003 24.9613746,6.90764003 L36.0457166,6.90764003 C36.6791403,6.90764003 37.1911482,7.4207934 37.1911482,8.05307167 C37.1911482,8.68534993 36.6791403,9.1985033 36.0457166,9.1985033 Z M36.0457166,14.7360926 L24.9613746,14.7360926 C24.3290964,14.7360926 23.815943,14.2229392 23.815943,13.5906609 C23.815943,12.9583827 24.3290964,12.4452293 24.9613746,12.4452293 L36.0457166,12.4452293 C36.6791403,12.4452293 37.1911482,12.9583827 37.1911482,13.5906609 C37.1911482,14.2229392 36.6791403,14.7360926 36.0457166,14.7360926 Z M36.0457166,20.2736818 L24.9613746,20.2736818 C24.3290964,20.2736818 23.815943,19.7605284 23.815943,19.1282502 C23.815943,18.4959719 24.3290964,17.9828185 24.9613746,17.9828185 L36.0457166,17.9828185 C36.6791403,17.9828185 37.1911482,18.4959719 37.1911482,19.1282502 C37.1911482,19.7605284 36.6791403,20.2736818 36.0457166,20.2736818 Z M36.0457166,25.811271 L8.04334937,25.811271 C7.40992568,25.811271 6.89791774,25.2981177 6.89791774,24.6658394 C6.89791774,24.0335611 7.40992568,23.5204078 8.04334937,23.5204078 L36.0457166,23.5204078 C36.6791403,23.5204078 37.1911482,24.0335611 37.1911482,24.6658394 C37.1911482,25.2981177 36.6791403,25.811271 36.0457166,25.811271 Z M36.0457166,31.3487458 L8.04334937,31.3487458 C7.40992568,31.3487458 6.89791774,30.8355924 6.89791774,30.2033141 C6.89791774,29.5710359 7.40992568,29.0578825 8.04334937,29.0578825 L36.0457166,29.0578825 C36.6791403,29.0578825 37.1911482,29.5710359 37.1911482,30.2033141 C37.1911482,30.8355924 36.6791403,31.3487458 36.0457166,31.3487458 Z"/></g></g></g></g></g></g></g></svg>
